<?xml version="1.0" encoding="UTF-8"?>
<svg id="Layer_1" xmlns="http://www.w3.org/2000/svg" width="400" height="400" viewBox="0 0 400 400">
  <path d="M199.95,400c110.46,0,199.96-89.51,199.96-199.96C399.99,89.58,310.41,0,199.95,0S-.01,89.58-.01,199.96s89.51,200.04,199.96,200.04M199.95,13.02c12.63,31.58,32.27,43.6,32.27,66.17,0,15.41-12.71,30.5-32.27,30.5s-32.27-15.02-32.27-30.5c.08-22.57,19.64-34.59,32.27-66.17M188.86,9.63c-22.8,35.82-33.12,48.99-33.12,69.02,0,24.03,20.18,43.52,44.29,43.52s44.29-19.49,44.29-43.52c0-20.03-10.32-33.2-33.12-69.02,100.13,5.78,179.63,88.81,179.63,190.41s-85.42,190.72-190.72,190.72S9.23,305.33,9.23,199.96,88.72,15.33,188.86,9.63" style="fill: #fff;"/>
  <path d="M80.1,174.77c-4.01,0-7.24,3.24-7.24,7.24v58.62c0,4.01,3.24,7.24,7.24,7.24s7.24-3.24,7.24-7.24v-58.62c0-4.01-3.24-7.24-7.24-7.24" style="fill: #fff;"/>
  <path d="M268.04,196.57c3.47,0,6.24-2.77,6.24-6.24v-9.32c0-3.47-2.77-6.24-6.24-6.24s-6.24,2.77-6.24,6.24v9.32c0,3.47,2.77,6.24,6.24,6.24" style="fill: #fff;"/>
  <path d="M199.95,373.35c95.74,0,173.39-77.64,173.39-173.39,0-80.34-54.61-147.89-128.79-167.61,3.93,4.93,17.02,22.95,17.02,46.22,0,33.58-27.65,60.93-61.62,60.93s-61.62-27.34-61.62-60.93c0-23.26,13.09-41.29,17.02-46.22C81.25,52.07,26.64,119.7,26.64,199.96c0,95.74,77.57,173.39,173.31,173.39M300.01,220.76h12.48v19.72c0,4.08,3.31,7.32,7.32,7.32s7.32-3.31,7.32-7.32v-8.4c0-2-1.23-4.78-2.7-6.09l-21.72-19.33c-1.54-1.31-2.7-4.08-2.7-6.09v-37.82c0-7.55,6.16-13.71,13.71-13.71h16.18c7.55,0,13.71,6.16,13.71,13.71v28.27h-16.48v-11.01c0-2.93-2.39-5.31-5.31-5.31s-5.31,2.39-5.31,5.31v12.86c0,2,1.23,4.78,2.77,6.09l21.72,19.41c1.46,1.31,2.7,4.08,2.7,6.09v5.55c0,38.74-16.71,73.64-43.67,98.67v-107.91ZM240,247.87c2.93,0,5.31-2.39,5.31-5.24v-62.55c0-2.93-2.39-5.31-5.31-5.31v-25.73h37.05c7.55,0,13.71,6.16,13.71,13.71v33.81c0,5.24-5.93,7.63-5.93,7.63,0,0,5.93,2.39,5.93,7.63v30.73c0,2.93,2.39,5.24,5.31,5.24v71.02c0,13.4-3.39,16.25-3.39,16.25-6.47,5.24-13.4,9.94-20.72,14.02.69-2.46,1.23-5.31,1.23-8.86v-122.7c0-3.16-2.54-5.7-5.7-5.7s-5.7,2.54-5.7,5.7v22.88c0,4.08,3.31,7.39,7.39,7.39v91.2c0,11.55-6.32,14.64-6.32,14.64-8.86,4.08-18.18,7.32-27.88,9.71,2.93-2.93,5.08-7.01,5.08-12.32v-103.14h-.08ZM183.47,148.97h52.61v42.06h-12.48v-9.09c0-4.01-3.24-7.24-7.24-7.24s-7.24,3.24-7.24,7.24v14.64h14.4v18.79h-14.4v25.34c0,4.01,3.24,7.24,7.24,7.24s7.24-3.24,7.24-7.24v-19.87h12.48v130.25c0,12.09-13.71,14.79-13.71,14.79-7.32,1.08-14.79,1.69-22.41,1.69-6.24,0-12.4-.39-18.41-1.16,1.93-1.23,5.85-4.7,5.85-12.25v-106.3c2.93,0,5.24-2.39,5.24-5.24v-58.62c0-5.08-4.16-9.24-9.24-9.24v-25.8h.08ZM138.71,340.38v-92.51c2.93,0,5.24-2.39,5.24-5.24v-62.55c0-2.93-2.39-5.31-5.24-5.31v-25.73h27.04v25.73c-2.93,0-5.24,2.39-5.24,5.31v62.55c0,2.93,2.39,5.24,5.24,5.24s5.24-2.39,5.24-5.24v-21.8h12.48v133.33c0,12.48-12.48,10.63-12.48,10.63-13.63-2.7-26.57-7.16-38.51-13.25,2.08-.85,6.24-3.39,6.24-11.17M107.75,310.88v-63.01c2.93,0,5.24-2.39,5.24-5.24v-62.55c0-2.93-2.39-5.31-5.24-5.31v-25.73h27.04v25.73c-2.93,0-5.24,2.39-5.24,5.31v62.55c0,2.93,2.39,5.24,5.24,5.24v92.51c0,10.71-9.4,7.16-9.4,7.16-10.24-5.93-19.64-13.09-27.96-21.26,3.54-.15,10.32-2.23,10.32-15.41M56.3,162.68c0-7.55,6.16-13.71,13.71-13.71h20.03c7.55,0,13.71,6.16,13.71,13.71v148.2c0,14.64-9.55,13.09-13.71,7.7-21.11-23.88-33.81-54.77-33.81-88.5v-67.4h.08Z" style="fill: #fff;"/>
  <path d="M232.22,79.26c0-22.57-19.56-34.66-32.27-66.17-12.63,31.58-32.27,43.6-32.27,66.17,0,15.41,12.79,30.5,32.27,30.5,19.56-.08,32.27-15.1,32.27-30.5" style="fill: #f60;"/>
</svg>